<?xml version="1.0" encoding="UTF-8" standalone="no"?>
<!-- Generator: Adobe Illustrator 16.0.0, SVG Export Plug-In . SVG Version: 6.00 Build 0)  -->

<svg
   xmlns:dc="http://purl.org/dc/elements/1.1/"
   xmlns:cc="http://creativecommons.org/ns#"
   xmlns:rdf="http://www.w3.org/1999/02/22-rdf-syntax-ns#"
   xmlns:svg="http://www.w3.org/2000/svg"
   xmlns="http://www.w3.org/2000/svg"
   xmlns:sodipodi="http://sodipodi.sourceforge.net/DTD/sodipodi-0.dtd"
   xmlns:inkscape="http://www.inkscape.org/namespaces/inkscape"
   version="1.1"
   id="Layer_1"
   x="0px"
   y="0px"
   width="457.98792"
   height="119.68101"
   viewBox="0 0 457.9879 119.68101"
   enable-background="new 0 0 366.204 268.442"
   xml:space="preserve"
   inkscape:version="0.91 r13725"
   sodipodi:docname="logo-colour-wide.svg"><metadata
     id="metadata4264"><rdf:RDF><cc:Work
         rdf:about=""><dc:format>image/svg+xml</dc:format><dc:type
           rdf:resource="http://purl.org/dc/dcmitype/StillImage" /><dc:title></dc:title></cc:Work></rdf:RDF></metadata><defs
     id="defs4262" /><sodipodi:namedview
     pagecolor="#ffffff"
     bordercolor="#666666"
     borderopacity="1"
     objecttolerance="10"
     gridtolerance="10"
     guidetolerance="10"
     inkscape:pageopacity="0"
     inkscape:pageshadow="2"
     inkscape:window-width="1855"
     inkscape:window-height="1056"
     id="namedview4260"
     showgrid="false"
     inkscape:snap-bbox="true"
     inkscape:snap-global="true"
     inkscape:snap-page="false"
     fit-margin-top="0"
     fit-margin-left="0"
     fit-margin-right="0"
     fit-margin-bottom="0"
     inkscape:zoom="0.81375406"
     inkscape:cx="49.681931"
     inkscape:cy="7.5797172"
     inkscape:window-x="1345"
     inkscape:window-y="24"
     inkscape:window-maximized="1"
     inkscape:current-layer="Layer_1" /><g
     id="g4172"
     transform="translate(93.306906,-147.15131)"><g
       id="g4174"><path
         d="m 19.602,208.835 c -1.438,1.438 -3.594,2.222 -6.142,2.222 l -8.756,0 0,-46.521 8.756,0 c 2.548,0 4.704,0.784 6.142,2.222 2.744,2.81 3.201,5.161 3.201,21.038 0,15.878 -0.457,18.23 -3.201,21.039 z m -1.96,-40.444 c -0.98,-0.979 -2.483,-1.503 -4.378,-1.503 l -5.947,0 0,41.816 5.946,0 c 1.895,0 3.397,-0.522 4.378,-1.502 2.221,-2.222 2.548,-4.247 2.548,-19.406 0,-15.158 -0.327,-17.183 -2.547,-19.405 z"
         id="path4176"
         inkscape:connector-curvature="0" /><path
         d="m 31.294,211.057 0,-46.521 2.613,0 0,46.521 -2.613,0 z"
         id="path4178"
         inkscape:connector-curvature="0" /><path
         d="m 51.874,211.58 c -2.548,0 -4.77,-0.784 -6.207,-2.286 -2.744,-2.81 -3.267,-5.424 -3.267,-21.497 0,-16.073 0.522,-18.687 3.267,-21.496 1.438,-1.503 3.659,-2.286 6.207,-2.286 2.744,0 4.77,0.914 6.207,2.352 1.829,1.96 2.613,4.835 2.613,8.232 l -2.613,0 c 0,-4.116 -1.241,-8.232 -6.207,-8.232 -1.895,0 -3.397,0.588 -4.378,1.634 -2.091,2.286 -2.482,4.312 -2.482,19.797 0,15.485 0.392,17.511 2.482,19.798 0.98,1.045 2.483,1.634 4.378,1.634 3.397,0 6.207,-2.483 6.207,-7.318 l 0,-12.937 -6.207,0 0,-2.353 8.82,0 0,15.42 c 0,6.402 -4.312,9.538 -8.82,9.538 z"
         id="path4180"
         inkscape:connector-curvature="0" /><path
         d="m 69.187,211.057 0,-46.521 2.613,0 0,46.521 -2.613,0 z"
         id="path4182"
         inkscape:connector-curvature="0" /><path
         d="m 88.329,166.888 0,44.169 -2.613,0 0,-44.169 -7.776,0 0,-2.352 18.164,0 0,2.352 -7.775,0 z"
         id="path4184"
         inkscape:connector-curvature="0" /><path
         d="m 115.115,211.057 -2.81,-13.982 -10.845,0 -2.744,13.982 -2.875,0 9.996,-46.521 2.353,0 9.801,46.521 -2.876,0 z m -8.232,-41.163 -4.9,24.828 9.866,0 -4.966,-24.828 z"
         id="path4186"
         inkscape:connector-curvature="0" /><path
         d="m 122.953,211.057 0,-46.521 2.614,0 0,44.168 12.414,0 0,2.353 -15.028,0 z"
         id="path4188"
         inkscape:connector-curvature="0" /><path
         d="m 172.019,208.444 c -1.829,1.895 -4.051,2.613 -7.71,2.613 l -7.122,0 0,-46.521 7.188,0 c 3.594,0 5.685,0.653 7.448,2.613 1.896,2.091 2.483,4.312 2.483,9.213 0,3.332 -0.393,6.207 -2.875,8.689 -0.98,0.98 -2.091,1.634 -3.071,1.896 1.307,0.261 2.483,0.914 3.463,1.829 2.679,2.679 3.006,6.142 3.006,9.67 -0.001,5.882 -0.916,8.038 -2.81,9.998 z m -7.253,-41.556 -4.966,0 0,18.948 4.966,0 c 4.312,0 6.926,-2.679 6.926,-9.474 -0.001,-7.513 -2.614,-9.474 -6.926,-9.474 z m 0,21.301 -4.966,0 0,20.516 4.966,0 c 4.64,0 7.449,-2.091 7.449,-10.258 0,-7.383 -2.81,-10.258 -7.449,-10.258 z"
         id="path4190"
         inkscape:connector-curvature="0" /><path
         d="m 183.058,211.057 0,-46.521 15.028,0 0,2.352 -12.415,0 0,19.732 10.716,0 0,2.353 -10.716,0 0,19.731 12.415,0 0,2.353 -15.028,0 z"
         id="path4192"
         inkscape:connector-curvature="0" /><path
         d="m 220.887,211.057 -2.81,-13.982 -10.846,0 -2.744,13.982 -2.875,0 9.996,-46.521 2.353,0 9.801,46.521 -2.875,0 z m -8.233,-41.163 -4.9,24.828 9.866,0 -4.966,-24.828 z"
         id="path4194"
         inkscape:connector-curvature="0" /><path
         d="m 245.059,211.057 -13.722,-39.334 0,39.334 -2.613,0 0,-46.521 2.875,0 13.786,39.333 -0.065,-39.333 2.614,0 0,46.521 -2.875,0 z"
         id="path4196"
         inkscape:connector-curvature="0" /><path
         d="m 271.387,209.163 c -1.503,1.503 -3.594,2.286 -6.599,2.286 -2.81,0 -5.031,-0.653 -6.665,-2.286 -2.025,-2.091 -2.679,-4.247 -2.679,-9.409 l 2.613,0 c 0,3.985 0.458,6.012 2.025,7.579 1.046,1.046 2.614,1.699 4.705,1.699 2.286,0 3.789,-0.653 4.77,-1.699 1.764,-1.764 2.091,-4.051 2.091,-8.102 0,-6.142 -0.98,-8.494 -5.097,-10.192 l -4.77,-1.961 c -4.77,-1.96 -6.012,-4.639 -6.012,-11.564 0,-3.92 0.98,-6.991 2.94,-8.951 1.568,-1.568 3.659,-2.418 6.403,-2.418 2.744,0 4.966,0.85 6.534,2.418 2.222,2.287 2.613,4.77 2.613,8.624 l -2.613,0 c 0,-3.201 -0.458,-5.161 -1.96,-6.86 -1.046,-1.176 -2.549,-1.829 -4.64,-1.829 -1.96,0 -3.332,0.588 -4.378,1.568 -1.633,1.567 -2.286,4.247 -2.286,7.383 0,5.881 0.784,7.71 5.423,9.604 l 4.77,1.96 c 4.835,1.961 5.685,5.815 5.685,12.153 0.002,4.965 -0.848,7.906 -2.873,9.997 z"
         id="path4198"
         inkscape:connector-curvature="0" /><path
         d="m 288.961,166.888 0,44.169 -2.613,0 0,-44.169 -7.775,0 0,-2.352 18.164,0 0,2.352 -7.776,0 z"
         id="path4200"
         inkscape:connector-curvature="0" /><path
         d="m 315.747,211.057 -2.81,-13.982 -10.846,0 -2.745,13.982 -2.874,0 9.996,-46.521 2.353,0 9.801,46.521 -2.875,0 z m -8.232,-41.163 -4.9,24.828 9.866,0 -4.966,-24.828 z"
         id="path4202"
         inkscape:connector-curvature="0" /><path
         d="m 323.584,211.057 0,-46.521 2.614,0 0,44.168 12.414,0 0,2.353 -15.028,0 z"
         id="path4204"
         inkscape:connector-curvature="0" /><path
         d="m 361.806,211.057 -9.604,-24.371 -4.835,9.474 0,14.897 -2.614,0 0,-46.521 2.614,0 0,26.527 13.198,-26.527 2.874,0 -9.539,19.144 10.781,27.377 -2.875,0 z"
         id="path4206"
         inkscape:connector-curvature="0" /></g></g><g
     id="g4208"
     transform="translate(93.306906,-161.15131)"><path
       d="m 62.755,244.077 0,18.474 -0.983,0 0,-18.474 0.983,0 z"
       id="path4210"
       inkscape:connector-curvature="0" /><path
       d="m 66.248,256.03 0,0.155 c 0,0.776 0.104,1.519 0.311,2.226 0.208,0.707 0.515,1.328 0.921,1.862 0.407,0.535 0.917,0.958 1.531,1.269 0.613,0.311 1.327,0.466 2.14,0.466 1.332,0 2.388,-0.35 3.165,-1.048 0.778,-0.699 1.314,-1.669 1.609,-2.911 l 0.983,0 c -0.294,1.553 -0.928,2.742 -1.902,3.57 -0.974,0.828 -2.264,1.242 -3.868,1.242 -0.983,0 -1.842,-0.177 -2.574,-0.53 -0.733,-0.354 -1.346,-0.837 -1.837,-1.449 -0.492,-0.612 -0.858,-1.337 -1.1,-2.173 -0.242,-0.837 -0.362,-1.738 -0.362,-2.704 0,-0.932 0.125,-1.824 0.375,-2.678 0.25,-0.854 0.625,-1.604 1.126,-2.251 0.5,-0.647 1.125,-1.165 1.875,-1.553 0.751,-0.389 1.635,-0.582 2.652,-0.582 0.932,0 1.755,0.172 2.471,0.518 0.716,0.345 1.315,0.814 1.799,1.41 0.482,0.595 0.85,1.285 1.1,2.069 0.25,0.785 0.375,1.626 0.375,2.522 0,0.087 -0.005,0.186 -0.013,0.298 -0.009,0.112 -0.014,0.203 -0.014,0.271 l -10.763,0 z m 9.78,-0.853 c -0.035,-0.725 -0.156,-1.41 -0.363,-2.057 -0.208,-0.647 -0.515,-1.217 -0.921,-1.708 -0.407,-0.491 -0.899,-0.884 -1.479,-1.178 -0.58,-0.293 -1.241,-0.439 -1.985,-0.439 -0.795,0 -1.496,0.151 -2.102,0.453 -0.606,0.302 -1.115,0.698 -1.53,1.189 -0.415,0.492 -0.735,1.065 -0.96,1.721 -0.225,0.656 -0.363,1.329 -0.415,2.019 l 9.755,0 z"
       id="path4212"
       inkscape:connector-curvature="0" /><path
       d="m 84.204,250.105 -2.897,0 0,9.289 c 0,0.534 0.06,0.957 0.181,1.268 0.121,0.311 0.307,0.548 0.557,0.711 0.25,0.165 0.552,0.264 0.905,0.298 0.354,0.035 0.764,0.043 1.229,0.026 l 0,0.854 c -0.501,0.034 -0.988,0.03 -1.462,-0.013 -0.475,-0.043 -0.893,-0.173 -1.255,-0.389 -0.362,-0.215 -0.651,-0.539 -0.867,-0.97 -0.216,-0.432 -0.307,-1.026 -0.271,-1.785 l 0,-9.289 -2.458,0 0,-0.854 2.458,0 0,-4.141 0.983,0 0,4.141 2.897,0 0,0.854 z"
       id="path4214"
       inkscape:connector-curvature="0" /><path
       d="m 91.604,249.252 1.164,0 4.942,12.135 4.554,-12.135 1.112,0 -5.692,14.722 c -0.275,0.655 -0.53,1.221 -0.763,1.695 -0.233,0.474 -0.496,0.823 -0.789,1.048 -0.346,0.275 -0.755,0.443 -1.229,0.504 -0.474,0.061 -1.1,0.091 -1.876,0.091 l 0,-0.854 c 0.707,0 1.259,-0.057 1.656,-0.168 0.396,-0.113 0.768,-0.341 1.112,-0.687 0.189,-0.189 0.389,-0.539 0.596,-1.048 0.207,-0.509 0.465,-1.203 0.775,-2.082 l -5.562,-13.221 z"
       id="path4216"
       inkscape:connector-curvature="0" /><path
       d="m 104.075,255.901 c 0,-0.948 0.133,-1.841 0.401,-2.678 0.267,-0.837 0.659,-1.574 1.177,-2.213 0.518,-0.638 1.155,-1.143 1.915,-1.514 0.759,-0.37 1.63,-0.556 2.613,-0.556 0.982,0 1.854,0.186 2.613,0.556 0.759,0.371 1.396,0.876 1.914,1.514 0.518,0.639 0.91,1.376 1.178,2.213 0.267,0.837 0.4,1.729 0.4,2.678 0,0.949 -0.134,1.846 -0.4,2.69 -0.268,0.846 -0.66,1.583 -1.178,2.213 -0.518,0.63 -1.155,1.13 -1.914,1.5 -0.76,0.371 -1.631,0.557 -2.613,0.557 -0.983,0 -1.854,-0.186 -2.613,-0.557 -0.76,-0.37 -1.397,-0.87 -1.915,-1.5 -0.518,-0.63 -0.91,-1.367 -1.177,-2.213 -0.268,-0.844 -0.401,-1.741 -0.401,-2.69 z m 0.984,0 c 0,0.793 0.111,1.557 0.336,2.29 0.224,0.733 0.552,1.384 0.983,1.953 0.431,0.569 0.966,1.022 1.604,1.358 0.638,0.336 1.371,0.505 2.199,0.505 0.827,0 1.561,-0.169 2.199,-0.505 0.638,-0.336 1.173,-0.789 1.604,-1.358 0.432,-0.569 0.759,-1.22 0.983,-1.953 0.224,-0.733 0.337,-1.497 0.337,-2.29 0,-0.793 -0.112,-1.557 -0.337,-2.29 -0.225,-0.733 -0.552,-1.384 -0.983,-1.953 -0.431,-0.569 -0.966,-1.022 -1.604,-1.358 -0.639,-0.337 -1.372,-0.505 -2.199,-0.505 -0.828,0 -1.562,0.168 -2.199,0.505 -0.639,0.336 -1.174,0.789 -1.604,1.358 -0.432,0.569 -0.76,1.22 -0.983,1.953 -0.225,0.734 -0.336,1.497 -0.336,2.29 z"
       id="path4218"
       inkscape:connector-curvature="0" /><path
       d="m 129.12,262.551 -0.983,0 0,-2.846 -0.052,0 c -0.172,0.5 -0.418,0.944 -0.737,1.332 -0.319,0.388 -0.689,0.721 -1.112,0.996 -0.423,0.276 -0.884,0.483 -1.385,0.621 -0.5,0.138 -1.009,0.207 -1.526,0.207 -0.776,0 -1.436,-0.095 -1.979,-0.285 -0.543,-0.189 -0.987,-0.439 -1.332,-0.75 -0.346,-0.311 -0.617,-0.659 -0.815,-1.048 -0.198,-0.388 -0.341,-0.78 -0.427,-1.177 -0.086,-0.397 -0.138,-0.78 -0.155,-1.151 -0.017,-0.371 -0.025,-0.694 -0.025,-0.971 l 0,-8.228 0.983,0 0,8.408 c 0,0.346 0.025,0.764 0.077,1.255 0.052,0.492 0.202,0.967 0.453,1.424 0.25,0.457 0.625,0.85 1.125,1.177 0.5,0.328 1.207,0.492 2.122,0.492 0.741,0 1.41,-0.139 2.005,-0.414 0.595,-0.276 1.1,-0.66 1.514,-1.151 0.414,-0.492 0.729,-1.078 0.944,-1.76 0.215,-0.682 0.323,-1.427 0.323,-2.238 l 0,-7.192 0.983,0 0,13.299 z"
       id="path4220"
       inkscape:connector-curvature="0" /><path
       d="m 133.002,252.201 0.077,0 c 0.12,-0.431 0.341,-0.836 0.66,-1.216 0.318,-0.38 0.707,-0.707 1.164,-0.983 0.457,-0.275 0.966,-0.487 1.526,-0.634 0.56,-0.147 1.143,-0.211 1.746,-0.194 l 0,0.983 c -0.517,-0.068 -1.108,-0.017 -1.771,0.155 -0.665,0.173 -1.299,0.552 -1.902,1.139 -0.241,0.259 -0.452,0.509 -0.634,0.75 -0.181,0.242 -0.332,0.509 -0.453,0.802 -0.12,0.294 -0.216,0.621 -0.284,0.983 -0.069,0.362 -0.112,0.794 -0.129,1.294 l 0,7.271 -0.983,0 0,-13.299 0.983,0 0,2.949 z"
       id="path4222"
       inkscape:connector-curvature="0" /><path
       d="m 156.417,253.365 c -0.052,-0.586 -0.203,-1.104 -0.452,-1.552 -0.251,-0.448 -0.574,-0.819 -0.971,-1.113 -0.397,-0.293 -0.858,-0.518 -1.384,-0.673 -0.526,-0.154 -1.092,-0.232 -1.695,-0.232 -0.828,0 -1.562,0.168 -2.199,0.505 -0.639,0.336 -1.173,0.785 -1.604,1.345 -0.431,0.562 -0.759,1.199 -0.982,1.915 -0.225,0.716 -0.337,1.453 -0.337,2.212 0,0.897 0.104,1.726 0.311,2.484 0.207,0.758 0.526,1.419 0.957,1.979 0.432,0.561 0.966,0.996 1.604,1.307 0.638,0.311 1.389,0.466 2.251,0.466 0.621,0 1.194,-0.104 1.721,-0.311 0.527,-0.207 0.992,-0.492 1.397,-0.854 0.405,-0.362 0.737,-0.797 0.996,-1.307 0.259,-0.508 0.431,-1.064 0.518,-1.669 l 0.982,0 c -0.103,0.794 -0.319,1.501 -0.646,2.122 -0.328,0.621 -0.742,1.143 -1.242,1.565 -0.5,0.422 -1.069,0.746 -1.707,0.971 -0.639,0.224 -1.312,0.336 -2.019,0.336 -1.087,0 -2.014,-0.194 -2.781,-0.582 -0.768,-0.389 -1.397,-0.91 -1.889,-1.565 -0.492,-0.655 -0.854,-1.41 -1.087,-2.264 -0.232,-0.854 -0.35,-1.747 -0.35,-2.679 0,-0.931 0.134,-1.811 0.401,-2.639 0.267,-0.828 0.66,-1.553 1.178,-2.174 0.517,-0.621 1.155,-1.112 1.914,-1.475 0.759,-0.363 1.63,-0.543 2.613,-0.543 0.725,0 1.401,0.09 2.031,0.271 0.63,0.181 1.19,0.453 1.682,0.814 0.492,0.362 0.893,0.824 1.203,1.385 0.31,0.561 0.5,1.212 0.569,1.953 l -0.983,0 z"
       id="path4224"
       inkscape:connector-curvature="0" /><path
       d="m 159.212,255.901 c 0,-0.948 0.133,-1.841 0.401,-2.678 0.267,-0.837 0.659,-1.574 1.177,-2.213 0.518,-0.638 1.155,-1.143 1.915,-1.514 0.759,-0.37 1.63,-0.556 2.613,-0.556 0.982,0 1.854,0.186 2.613,0.556 0.759,0.371 1.396,0.876 1.914,1.514 0.518,0.639 0.91,1.376 1.178,2.213 0.267,0.837 0.4,1.729 0.4,2.678 0,0.949 -0.134,1.846 -0.4,2.69 -0.268,0.846 -0.66,1.583 -1.178,2.213 -0.518,0.63 -1.155,1.13 -1.914,1.5 -0.76,0.371 -1.631,0.557 -2.613,0.557 -0.983,0 -1.854,-0.186 -2.613,-0.557 -0.76,-0.37 -1.397,-0.87 -1.915,-1.5 -0.518,-0.63 -0.91,-1.367 -1.177,-2.213 -0.268,-0.844 -0.401,-1.741 -0.401,-2.69 z m 0.983,0 c 0,0.793 0.111,1.557 0.336,2.29 0.224,0.733 0.552,1.384 0.983,1.953 0.431,0.569 0.966,1.022 1.604,1.358 0.638,0.336 1.371,0.505 2.199,0.505 0.827,0 1.561,-0.169 2.199,-0.505 0.638,-0.336 1.173,-0.789 1.604,-1.358 0.432,-0.569 0.759,-1.22 0.983,-1.953 0.224,-0.733 0.337,-1.497 0.337,-2.29 0,-0.793 -0.112,-1.557 -0.337,-2.29 -0.225,-0.733 -0.552,-1.384 -0.983,-1.953 -0.431,-0.569 -0.966,-1.022 -1.604,-1.358 -0.639,-0.337 -1.372,-0.505 -2.199,-0.505 -0.828,0 -1.562,0.168 -2.199,0.505 -0.639,0.336 -1.174,0.789 -1.604,1.358 -0.432,0.569 -0.76,1.22 -0.983,1.953 -0.224,0.734 -0.336,1.497 -0.336,2.29 z"
       id="path4226"
       inkscape:connector-curvature="0" /><path
       d="m 173.752,249.252 0.983,0 0,2.717 0.052,0 c 0.104,-0.414 0.284,-0.807 0.543,-1.178 0.259,-0.371 0.573,-0.694 0.944,-0.97 0.371,-0.276 0.785,-0.492 1.242,-0.647 0.457,-0.155 0.936,-0.232 1.437,-0.232 0.638,0 1.189,0.082 1.655,0.245 0.466,0.164 0.862,0.38 1.19,0.647 0.327,0.268 0.586,0.569 0.776,0.905 0.189,0.337 0.319,0.678 0.388,1.022 l 0.052,0 c 0.396,-0.932 0.928,-1.635 1.592,-2.109 0.664,-0.474 1.539,-0.711 2.626,-0.711 0.604,0 1.16,0.09 1.669,0.271 0.509,0.181 0.948,0.457 1.319,0.828 0.371,0.371 0.66,0.841 0.867,1.41 0.207,0.569 0.311,1.241 0.311,2.018 l 0,9.082 -0.983,0 0,-9.107 c 0,-0.845 -0.13,-1.51 -0.389,-1.992 -0.258,-0.483 -0.564,-0.85 -0.918,-1.1 -0.354,-0.25 -0.708,-0.405 -1.061,-0.466 -0.354,-0.061 -0.626,-0.091 -0.815,-0.091 -0.604,0 -1.16,0.104 -1.669,0.311 -0.509,0.207 -0.949,0.518 -1.319,0.932 -0.371,0.414 -0.66,0.927 -0.867,1.539 -0.207,0.612 -0.311,1.315 -0.311,2.109 l 0,7.865 -0.982,0 0,-9.107 c 0,-0.828 -0.126,-1.488 -0.376,-1.979 -0.25,-0.491 -0.543,-0.858 -0.879,-1.1 -0.337,-0.241 -0.682,-0.396 -1.035,-0.466 -0.354,-0.068 -0.634,-0.104 -0.841,-0.104 -0.466,0 -0.949,0.095 -1.449,0.284 -0.501,0.19 -0.957,0.483 -1.371,0.88 -0.414,0.397 -0.751,0.906 -1.01,1.527 -0.259,0.62 -0.388,1.354 -0.388,2.199 l 0,7.865 -0.983,0 0,-13.297 z"
       id="path4228"
       inkscape:connector-curvature="0" /><path
       d="m 195.512,252.305 0.078,0 c 0.104,-0.327 0.275,-0.689 0.518,-1.087 0.241,-0.396 0.561,-0.763 0.957,-1.1 0.396,-0.336 0.875,-0.616 1.437,-0.841 0.56,-0.224 1.203,-0.336 1.927,-0.336 1.018,0 1.902,0.189 2.652,0.569 0.751,0.379 1.371,0.889 1.863,1.526 0.491,0.638 0.857,1.38 1.1,2.225 0.241,0.846 0.362,1.734 0.362,2.665 0,1.019 -0.121,1.95 -0.363,2.795 -0.242,0.845 -0.609,1.574 -1.103,2.187 -0.494,0.613 -1.115,1.091 -1.867,1.436 -0.752,0.345 -1.639,0.518 -2.658,0.518 -1.106,0 -2.093,-0.242 -2.957,-0.725 -0.864,-0.483 -1.495,-1.268 -1.894,-2.354 l -0.051,0 -0.001,7.529 -0.957,0 0,-18.06 0.957,0 0,3.053 z m 4.903,9.703 c 0.864,0 1.612,-0.164 2.244,-0.492 0.631,-0.327 1.149,-0.768 1.557,-1.319 0.406,-0.552 0.709,-1.194 0.907,-1.928 0.199,-0.732 0.299,-1.514 0.299,-2.342 0,-0.759 -0.096,-1.505 -0.285,-2.237 -0.19,-0.733 -0.484,-1.389 -0.883,-1.967 -0.397,-0.578 -0.912,-1.044 -1.543,-1.397 -0.632,-0.354 -1.396,-0.53 -2.296,-0.53 -0.882,0 -1.634,0.173 -2.257,0.518 -0.623,0.345 -1.129,0.802 -1.518,1.371 -0.39,0.569 -0.67,1.221 -0.844,1.954 -0.173,0.732 -0.259,1.496 -0.259,2.289 0,0.794 0.077,1.558 0.233,2.29 0.155,0.733 0.419,1.38 0.791,1.94 0.372,0.56 0.873,1.01 1.505,1.346 0.632,0.335 1.415,0.504 2.349,0.504 z"
       id="path4230"
       inkscape:connector-curvature="0" /><path
       d="m 217.53,259.912 -0.052,0 c -0.155,0.396 -0.379,0.771 -0.672,1.125 -0.294,0.354 -0.651,0.669 -1.074,0.944 -0.423,0.276 -0.901,0.492 -1.436,0.646 -0.535,0.155 -1.122,0.233 -1.76,0.233 -1.415,0 -2.51,-0.307 -3.286,-0.919 -0.776,-0.611 -1.164,-1.556 -1.164,-2.833 0,-0.776 0.155,-1.41 0.466,-1.901 0.311,-0.492 0.702,-0.88 1.177,-1.164 0.475,-0.285 1,-0.487 1.578,-0.608 0.578,-0.12 1.135,-0.207 1.669,-0.259 l 1.527,-0.13 c 0.707,-0.051 1.263,-0.133 1.668,-0.245 0.405,-0.112 0.712,-0.268 0.919,-0.466 0.207,-0.198 0.336,-0.453 0.388,-0.764 0.052,-0.311 0.078,-0.698 0.078,-1.164 0,-0.362 -0.069,-0.698 -0.207,-1.009 -0.139,-0.311 -0.354,-0.587 -0.646,-0.828 -0.294,-0.241 -0.673,-0.431 -1.139,-0.569 -0.466,-0.138 -1.035,-0.207 -1.708,-0.207 -1.19,0 -2.151,0.294 -2.885,0.88 -0.733,0.587 -1.135,1.475 -1.203,2.665 l -0.983,0 c 0.069,-1.466 0.539,-2.565 1.41,-3.299 0.871,-0.734 2.108,-1.1 3.713,-1.1 1.605,0 2.772,0.314 3.506,0.944 0.734,0.63 1.1,1.453 1.1,2.471 l 0,7.736 c 0,0.19 0.004,0.38 0.014,0.569 0.008,0.189 0.038,0.362 0.09,0.518 0.052,0.156 0.138,0.28 0.259,0.375 0.121,0.095 0.293,0.143 0.518,0.143 0.172,0 0.414,-0.026 0.725,-0.078 l 0,0.828 c -0.259,0.069 -0.526,0.104 -0.802,0.104 -0.397,0 -0.712,-0.052 -0.944,-0.155 -0.233,-0.104 -0.41,-0.241 -0.531,-0.414 -0.12,-0.172 -0.202,-0.375 -0.245,-0.608 -0.044,-0.232 -0.065,-0.486 -0.065,-0.763 l 0,-0.698 z m 0,-4.916 c -0.241,0.293 -0.607,0.491 -1.1,0.595 -0.491,0.104 -1.039,0.181 -1.643,0.232 l -1.656,0.155 c -0.482,0.052 -0.966,0.126 -1.448,0.221 -0.483,0.095 -0.919,0.254 -1.307,0.479 -0.389,0.224 -0.703,0.53 -0.944,0.918 -0.242,0.389 -0.362,0.893 -0.362,1.514 0,0.983 0.311,1.712 0.931,2.187 0.621,0.475 1.476,0.712 2.562,0.712 1.121,0 2.01,-0.203 2.665,-0.608 0.655,-0.405 1.156,-0.871 1.501,-1.397 0.345,-0.525 0.564,-1.035 0.66,-1.526 0.095,-0.491 0.142,-0.823 0.142,-0.996 l 0,-2.486 z"
       id="path4232"
       inkscape:connector-curvature="0" /><path
       d="m 221.645,249.252 0.983,0 0,2.846 0.052,0 c 0.172,-0.5 0.418,-0.944 0.737,-1.332 0.318,-0.389 0.689,-0.721 1.112,-0.996 0.422,-0.276 0.884,-0.483 1.384,-0.621 0.5,-0.139 1.01,-0.207 1.527,-0.207 0.775,0 1.436,0.095 1.979,0.284 0.544,0.19 0.987,0.44 1.333,0.751 0.345,0.31 0.616,0.659 0.814,1.048 0.198,0.388 0.341,0.78 0.428,1.177 0.086,0.397 0.138,0.78 0.155,1.151 0.017,0.371 0.025,0.694 0.025,0.971 l 0,8.228 -0.983,0 0,-8.409 c 0,-0.327 -0.025,-0.741 -0.077,-1.242 -0.052,-0.5 -0.203,-0.979 -0.453,-1.436 -0.25,-0.457 -0.63,-0.85 -1.139,-1.178 -0.509,-0.327 -1.212,-0.491 -2.108,-0.491 -0.759,0 -1.432,0.139 -2.019,0.414 -0.586,0.276 -1.086,0.66 -1.5,1.151 -0.414,0.491 -0.729,1.078 -0.944,1.76 -0.216,0.682 -0.323,1.427 -0.323,2.237 l 0,7.193 -0.983,0 0,-13.299 z"
       id="path4234"
       inkscape:connector-curvature="0" /><path
       d="m 233.469,249.252 1.164,0 4.942,12.135 4.554,-12.135 1.112,0 -5.692,14.722 c -0.275,0.655 -0.53,1.221 -0.763,1.695 -0.233,0.474 -0.496,0.823 -0.789,1.048 -0.346,0.275 -0.755,0.443 -1.229,0.504 -0.474,0.061 -1.1,0.091 -1.876,0.091 l 0,-0.854 c 0.707,0 1.259,-0.057 1.656,-0.168 0.396,-0.113 0.768,-0.341 1.112,-0.687 0.189,-0.189 0.389,-0.539 0.596,-1.048 0.207,-0.509 0.465,-1.203 0.775,-2.082 l -5.562,-13.221 z"
       id="path4236"
       inkscape:connector-curvature="0" /><path
       d="m 264.725,249.252 0,12.601 c 0,0.741 -0.087,1.462 -0.259,2.16 -0.172,0.698 -0.469,1.315 -0.891,1.85 -0.422,0.535 -1.003,0.962 -1.742,1.281 -0.74,0.318 -1.678,0.479 -2.813,0.479 -0.706,0 -1.368,-0.073 -1.987,-0.22 -0.62,-0.146 -1.162,-0.38 -1.626,-0.699 -0.465,-0.319 -0.84,-0.741 -1.123,-1.268 -0.284,-0.526 -0.443,-1.177 -0.478,-1.953 l 0.983,0 c 0.051,0.586 0.197,1.087 0.439,1.501 0.241,0.413 0.557,0.754 0.944,1.021 0.387,0.267 0.823,0.461 1.307,0.582 0.482,0.121 1,0.182 1.553,0.182 0.914,0 1.677,-0.139 2.289,-0.414 0.612,-0.276 1.1,-0.634 1.462,-1.074 0.362,-0.439 0.617,-0.94 0.764,-1.5 0.146,-0.562 0.22,-1.126 0.22,-1.695 l 0,-3.053 -0.075,0 c -0.465,0.983 -1.097,1.733 -1.897,2.251 -0.8,0.518 -1.769,0.776 -2.904,0.776 -0.98,0 -1.829,-0.169 -2.543,-0.505 -0.715,-0.336 -1.309,-0.802 -1.781,-1.397 -0.474,-0.595 -0.826,-1.289 -1.059,-2.083 -0.232,-0.793 -0.349,-1.655 -0.349,-2.587 0,-0.88 0.125,-1.716 0.376,-2.51 0.249,-0.793 0.616,-1.488 1.1,-2.083 0.482,-0.595 1.082,-1.069 1.798,-1.423 0.716,-0.354 1.539,-0.53 2.471,-0.53 1.052,0 2.022,0.268 2.911,0.802 0.888,0.535 1.522,1.294 1.901,2.277 l 0.052,0 0,-2.769 0.957,0 z m -5.823,0.543 c -0.811,0 -1.514,0.164 -2.108,0.491 -0.596,0.328 -1.087,0.76 -1.475,1.294 -0.389,0.535 -0.682,1.144 -0.88,1.824 -0.198,0.682 -0.298,1.376 -0.298,2.083 0,0.776 0.1,1.514 0.298,2.212 0.198,0.699 0.5,1.307 0.905,1.824 0.405,0.517 0.905,0.928 1.501,1.229 0.595,0.302 1.28,0.452 2.057,0.452 0.811,0 1.518,-0.155 2.122,-0.466 0.604,-0.311 1.107,-0.732 1.514,-1.268 0.405,-0.534 0.707,-1.143 0.905,-1.824 0.198,-0.681 0.298,-1.401 0.298,-2.16 0,-0.741 -0.1,-1.458 -0.298,-2.147 -0.198,-0.689 -0.5,-1.298 -0.905,-1.824 -0.406,-0.526 -0.91,-0.944 -1.514,-1.255 -0.604,-0.31 -1.311,-0.465 -2.122,-0.465 z"
       id="path4238"
       inkscape:connector-curvature="0" /><path
       d="m 268.631,252.201 0.077,0 c 0.12,-0.431 0.341,-0.836 0.66,-1.216 0.318,-0.38 0.707,-0.707 1.164,-0.983 0.457,-0.275 0.966,-0.487 1.526,-0.634 0.56,-0.147 1.143,-0.211 1.746,-0.194 l 0,0.983 c -0.517,-0.068 -1.108,-0.017 -1.771,0.155 -0.665,0.173 -1.299,0.552 -1.902,1.139 -0.241,0.259 -0.452,0.509 -0.634,0.75 -0.181,0.242 -0.332,0.509 -0.453,0.802 -0.12,0.294 -0.216,0.621 -0.284,0.983 -0.069,0.362 -0.112,0.794 -0.129,1.294 l 0,7.271 -0.983,0 0,-13.299 0.983,0 0,2.949 z"
       id="path4240"
       inkscape:connector-curvature="0" /><path
       d="m 273.909,255.901 c 0,-0.948 0.133,-1.841 0.401,-2.678 0.267,-0.837 0.659,-1.574 1.177,-2.213 0.518,-0.638 1.155,-1.143 1.915,-1.514 0.759,-0.37 1.63,-0.556 2.613,-0.556 0.982,0 1.854,0.186 2.613,0.556 0.759,0.371 1.396,0.876 1.914,1.514 0.518,0.639 0.91,1.376 1.178,2.213 0.267,0.837 0.4,1.729 0.4,2.678 0,0.949 -0.134,1.846 -0.4,2.69 -0.268,0.846 -0.66,1.583 -1.178,2.213 -0.518,0.63 -1.155,1.13 -1.914,1.5 -0.76,0.371 -1.631,0.557 -2.613,0.557 -0.983,0 -1.854,-0.186 -2.613,-0.557 -0.76,-0.37 -1.397,-0.87 -1.915,-1.5 -0.518,-0.63 -0.91,-1.367 -1.177,-2.213 -0.268,-0.844 -0.401,-1.741 -0.401,-2.69 z m 0.984,0 c 0,0.793 0.111,1.557 0.336,2.29 0.224,0.733 0.552,1.384 0.983,1.953 0.431,0.569 0.966,1.022 1.604,1.358 0.638,0.336 1.371,0.505 2.199,0.505 0.827,0 1.561,-0.169 2.199,-0.505 0.638,-0.336 1.173,-0.789 1.604,-1.358 0.432,-0.569 0.759,-1.22 0.983,-1.953 0.224,-0.733 0.337,-1.497 0.337,-2.29 0,-0.793 -0.112,-1.557 -0.337,-2.29 -0.225,-0.733 -0.552,-1.384 -0.983,-1.953 -0.431,-0.569 -0.966,-1.022 -1.604,-1.358 -0.639,-0.337 -1.372,-0.505 -2.199,-0.505 -0.828,0 -1.562,0.168 -2.199,0.505 -0.639,0.336 -1.174,0.789 -1.604,1.358 -0.432,0.569 -0.76,1.22 -0.983,1.953 -0.225,0.734 -0.336,1.497 -0.336,2.29 z"
       id="path4242"
       inkscape:connector-curvature="0" /><path
       d="m 291.735,261.412 0.052,0 3.622,-12.16 1.32,0 3.647,12.16 0.052,0 3.727,-12.16 1.086,0 -4.269,13.299 -1.217,0 -3.647,-12.058 -0.052,0 -3.675,12.058 -1.241,0 -4.218,-13.299 1.061,0 3.752,12.16 z"
       id="path4244"
       inkscape:connector-curvature="0" /></g><path
     d="M 57.495,55.934 63.358,13.299 45.901,0 5.231,17.157 0.016,59.163 0,59.28 l 14.279,34.503 0.045,0.114 35.049,25.78401 39.627,-16.415 0.25,-0.104 L 91.43,81.268 57.495,55.934 Z M 89.846,81.2 71.28,84.154 55.983,68.464 57.37,56.953 89.846,81.2 Z M 56.542,56.337 55.183,67.643 48.103,60.379 47.781,49.741 56.542,56.337 Z M 49.225,97.465 48.955,88.612 52.732,88.01 51.56,97.755005 49.225,97.465 Z m 2.229,1.180005 -1.752,14.577005 -0.449,-14.852005 2.201,0.275 z M 8.083,34.212 15.231,27.944 20.161,33.001 11.704,43.942 8.9969999,41.894 8.083,34.212 Z m -0.075,6.935 -4.207,-3.183 3.469,-3.04 0.738,6.223 z m 44.836,45.941 -3.916,0.623 -0.119,-3.974 4.191,2.054 -0.156,1.297 z m 1.006,-0.881 1.109,0.545 -1.199,0.19 0.09,-0.735 z m -5.812,1.646 -32.686,5.201 7.414,-22.079 25.133,12.316 0.139,4.562 z M 23.055,70.118 27.463,56.987 47.563,72.192 47.868,82.278 23.055,70.118 Z M 27.764,56.093 31.582,44.719 47.215,60.754 47.527,71.044 27.764,56.093 Z M 27.01,55.522 12.416,44.481 20.791,33.648 30.881,43.998 27.01,55.522 Z m -5.666,-22.589 1.51,-1.952 9.896,7.449 -1.549,4.613 -9.857,-10.11 z m -4.455,-6.442 5.248,3.951 -1.424,1.843 -4.809,-4.933 0.985,-0.861 z m -1.609,0.22 -5.24,-5.375 6.119,4.605 -0.879,0.77 z m 8.119,3.563 11.1,-14.359 5.951,-0.413 -7.4,22.036 -9.651,-7.264 z M 35.233,14.965 44.776,2.621 40.758,14.581 35.233,14.965 Z M 34.038,15.048 29.587,15.357 42.655,3.9 34.038,15.048 Z m -0.735,0.95 -10.619,13.737 -5.109,-3.846 10.898,-9.556 4.83,-0.335 z M 16.844,25.341 6.869,17.833 27,16.436 16.844,25.341 Z m -2.238,1.962 -6.652,5.831 -1.713,-14.41 8.365,8.579 z M 11.155,44.65 9.5669999,46.704 9.1429999,43.128 11.155,44.65 Z M 11.87,45.19 26.71,56.418 22.243,69.721 11.688,64.548 9.7189999,47.973 11.87,45.19 Z m 10.086,25.387 -7.053,21.005 -3.088,-25.975 10.141,4.97 z m 26.109,18.177 0.26,8.599 -30.441,-3.795 30.181,-4.804 z m 5.584,-0.889 2.705,-0.431 29.881,14.64501 L 52.446,97.866005 53.649,87.865 Z M 57.891,87.19 65.737,85.941 84.852,100.40301 57.891,87.19 Z m -1.394,-0.683 -2.533,-1.242 0.906,-7.543 9.879,7.473 -8.252,1.312 z m -3.383,-1.658 -4.336,-2.124 -0.297,-9.838 5.564,4.211 -0.931,7.751 z m -4.668,-13.111 -0.305,-10.035 6.904,7.082 -0.877,7.283 -5.722,-4.33 z m -1.27,-12.309 -15.271,-15.665 1.6,-4.767 13.357,10.054 0.314,10.378 z m -13.373,-21.324 7.613,-22.67 4.416,-0.307 0.994,32.778 -13.023,-9.801 z m 7.924,-23.59 3.75,-11.168 0.328,10.885 -4.078,0.283 z M 46.317,1.44 61.661,13.129 46.702,14.168 46.317,1.44 Z M 28.114,15.459 8.294,16.835 43.468,1.997 28.114,15.459 Z M 7.141,33.847 3.684,36.879 5.635,21.168 7.141,33.847 Z M 3.442,38.815 8.155,42.38 8.7899999,47.711 1.102,57.654 3.442,38.815 Z M 8.9399999,48.979 10.733,64.08 1.62,59.613 1.341,60.181 0.972,59.287 8.9399999,48.979 Z M 10.86,65.14 13.868,90.452 1.493,60.55 10.86,65.14 Z M 48.352,98.258005 48.959,118.26601 16.34,94.269 48.352,98.258005 Z m 3.989,0.497 34.754,4.331005 -37.127,15.38 2.373,-19.711005 z M 66.964,85.746 70.96,85.11 84.556,99.054005 66.964,85.746 Z m -0.989,-0.747 -10.98,-8.307 0.852,-7.086 14.35,14.721 -4.222,0.672 z M 56.678,55.321 47.744,48.597 46.728,15.066 62.359,13.981 56.678,55.321 Z M 88.485,101.80301 72.044,84.938 90.458,82.007 88.485,101.80301 Z"
     id="path4246"
     inkscape:connector-curvature="0"
     style="fill:#fdb913" /><g
     id="g4248"
     transform="translate(-1.3162781,-2.457745)" /><g
     id="g4250"
     transform="translate(-1.3162781,-2.457745)" /><g
     id="g4252"
     transform="translate(-1.3162781,-2.457745)" /><g
     id="g4254"
     transform="translate(-1.3162781,-2.457745)" /><g
     id="g4256"
     transform="translate(-1.3162781,-2.457745)" /><g
     id="g4258"
     transform="translate(-1.3162781,-2.457745)" /></svg>