<?xml version="1.0" encoding="utf-8"?>
<!-- Generator: Adobe Illustrator 16.0.0, SVG Export Plug-In . SVG Version: 6.00 Build 0)  -->
<!DOCTYPE svg PUBLIC "-//W3C//DTD SVG 1.1//EN" "http://www.w3.org/Graphics/SVG/1.1/DTD/svg11.dtd">
<svg version="1.1" id="Layer_1" xmlns="http://www.w3.org/2000/svg" xmlns:xlink="http://www.w3.org/1999/xlink" x="0px" y="0px"
	 width="366.204px" height="268.442px" viewBox="0 0 366.204 268.442" enable-background="new 0 0 366.204 268.442"
	 xml:space="preserve">
<g>
	<g>
		<path d="M19.602,208.835c-1.438,1.438-3.594,2.222-6.142,2.222H4.704v-46.521h8.756c2.548,0,4.704,0.784,6.142,2.222
			c2.744,2.81,3.201,5.161,3.201,21.038C22.803,203.674,22.346,206.026,19.602,208.835z M17.642,168.391
			c-0.98-0.979-2.483-1.503-4.378-1.503H7.317v41.816h5.946c1.895,0,3.397-0.522,4.378-1.502c2.221-2.222,2.548-4.247,2.548-19.406
			C20.189,172.638,19.862,170.613,17.642,168.391z"/>
		<path d="M31.294,211.057v-46.521h2.613v46.521H31.294z"/>
		<path d="M51.874,211.58c-2.548,0-4.77-0.784-6.207-2.286c-2.744-2.81-3.267-5.424-3.267-21.497s0.522-18.687,3.267-21.496
			c1.438-1.503,3.659-2.286,6.207-2.286c2.744,0,4.77,0.914,6.207,2.352c1.829,1.96,2.613,4.835,2.613,8.232h-2.613
			c0-4.116-1.241-8.232-6.207-8.232c-1.895,0-3.397,0.588-4.378,1.634c-2.091,2.286-2.482,4.312-2.482,19.797
			c0,15.485,0.392,17.511,2.482,19.798c0.98,1.045,2.483,1.634,4.378,1.634c3.397,0,6.207-2.483,6.207-7.318v-12.937h-6.207v-2.353
			h8.82v15.42C60.694,208.444,56.382,211.58,51.874,211.58z"/>
		<path d="M69.187,211.057v-46.521H71.8v46.521H69.187z"/>
		<path d="M88.329,166.888v44.169h-2.613v-44.169H77.94v-2.352h18.164v2.352H88.329z"/>
		<path d="M115.115,211.057l-2.81-13.982H101.46l-2.744,13.982h-2.875l9.996-46.521h2.353l9.801,46.521H115.115z M106.883,169.894
			l-4.9,24.828h9.866L106.883,169.894z"/>
		<path d="M122.953,211.057v-46.521h2.614v44.168h12.414v2.353H122.953z"/>
		<path d="M172.019,208.444c-1.829,1.895-4.051,2.613-7.71,2.613h-7.122v-46.521h7.188c3.594,0,5.685,0.653,7.448,2.613
			c1.896,2.091,2.483,4.312,2.483,9.213c0,3.332-0.393,6.207-2.875,8.689c-0.98,0.98-2.091,1.634-3.071,1.896
			c1.307,0.261,2.483,0.914,3.463,1.829c2.679,2.679,3.006,6.142,3.006,9.67C174.828,204.328,173.913,206.484,172.019,208.444z
			 M164.766,166.888H159.8v18.948h4.966c4.312,0,6.926-2.679,6.926-9.474C171.691,168.849,169.078,166.888,164.766,166.888z
			 M164.766,188.189H159.8v20.516h4.966c4.64,0,7.449-2.091,7.449-10.258C172.215,191.064,169.405,188.189,164.766,188.189z"/>
		<path d="M183.058,211.057v-46.521h15.028v2.352h-12.415v19.732h10.716v2.353h-10.716v19.731h12.415v2.353H183.058z"/>
		<path d="M220.887,211.057l-2.81-13.982h-10.846l-2.744,13.982h-2.875l9.996-46.521h2.353l9.801,46.521H220.887z M212.654,169.894
			l-4.9,24.828h9.866L212.654,169.894z"/>
		<path d="M245.059,211.057l-13.722-39.334v39.334h-2.613v-46.521h2.875l13.786,39.333l-0.065-39.333h2.614v46.521H245.059z"/>
		<path d="M271.387,209.163c-1.503,1.503-3.594,2.286-6.599,2.286c-2.81,0-5.031-0.653-6.665-2.286
			c-2.025-2.091-2.679-4.247-2.679-9.409h2.613c0,3.985,0.458,6.012,2.025,7.579c1.046,1.046,2.614,1.699,4.705,1.699
			c2.286,0,3.789-0.653,4.77-1.699c1.764-1.764,2.091-4.051,2.091-8.102c0-6.142-0.98-8.494-5.097-10.192l-4.77-1.961
			c-4.77-1.96-6.012-4.639-6.012-11.564c0-3.92,0.98-6.991,2.94-8.951c1.568-1.568,3.659-2.418,6.403-2.418s4.966,0.85,6.534,2.418
			c2.222,2.287,2.613,4.77,2.613,8.624h-2.613c0-3.201-0.458-5.161-1.96-6.86c-1.046-1.176-2.549-1.829-4.64-1.829
			c-1.96,0-3.332,0.588-4.378,1.568c-1.633,1.567-2.286,4.247-2.286,7.383c0,5.881,0.784,7.71,5.423,9.604l4.77,1.96
			c4.835,1.961,5.685,5.815,5.685,12.153C274.262,204.131,273.412,207.072,271.387,209.163z"/>
		<path d="M288.961,166.888v44.169h-2.613v-44.169h-7.775v-2.352h18.164v2.352H288.961z"/>
		<path d="M315.747,211.057l-2.81-13.982h-10.846l-2.745,13.982h-2.874l9.996-46.521h2.353l9.801,46.521H315.747z M307.515,169.894
			l-4.9,24.828h9.866L307.515,169.894z"/>
		<path d="M323.584,211.057v-46.521h2.614v44.168h12.414v2.353H323.584z"/>
		<path d="M361.806,211.057l-9.604-24.371l-4.835,9.474v14.897h-2.614v-46.521h2.614v26.527l13.198-26.527h2.874l-9.539,19.144
			l10.781,27.377H361.806z"/>
	</g>
</g>
<g>
	<path d="M62.755,244.077v18.474h-0.983v-18.474H62.755z"/>
	<path d="M66.248,256.03v0.155c0,0.776,0.104,1.519,0.311,2.226c0.208,0.707,0.515,1.328,0.921,1.862
		c0.407,0.535,0.917,0.958,1.531,1.269c0.613,0.311,1.327,0.466,2.14,0.466c1.332,0,2.388-0.35,3.165-1.048
		c0.778-0.699,1.314-1.669,1.609-2.911h0.983c-0.294,1.553-0.928,2.742-1.902,3.57s-2.264,1.242-3.868,1.242
		c-0.983,0-1.842-0.177-2.574-0.53c-0.733-0.354-1.346-0.837-1.837-1.449c-0.492-0.612-0.858-1.337-1.1-2.173
		c-0.242-0.837-0.362-1.738-0.362-2.704c0-0.932,0.125-1.824,0.375-2.678c0.25-0.854,0.625-1.604,1.126-2.251
		c0.5-0.647,1.125-1.165,1.875-1.553c0.751-0.389,1.635-0.582,2.652-0.582c0.932,0,1.755,0.172,2.471,0.518
		c0.716,0.345,1.315,0.814,1.799,1.41c0.482,0.595,0.85,1.285,1.1,2.069c0.25,0.785,0.375,1.626,0.375,2.522
		c0,0.087-0.005,0.186-0.013,0.298c-0.009,0.112-0.014,0.203-0.014,0.271H66.248z M76.028,255.177
		c-0.035-0.725-0.156-1.41-0.363-2.057c-0.208-0.647-0.515-1.217-0.921-1.708c-0.407-0.491-0.899-0.884-1.479-1.178
		c-0.58-0.293-1.241-0.439-1.985-0.439c-0.795,0-1.496,0.151-2.102,0.453s-1.115,0.698-1.53,1.189
		c-0.415,0.492-0.735,1.065-0.96,1.721c-0.225,0.656-0.363,1.329-0.415,2.019H76.028z"/>
	<path d="M84.204,250.105h-2.897v9.289c0,0.534,0.06,0.957,0.181,1.268s0.307,0.548,0.557,0.711c0.25,0.165,0.552,0.264,0.905,0.298
		c0.354,0.035,0.764,0.043,1.229,0.026v0.854c-0.501,0.034-0.988,0.03-1.462-0.013c-0.475-0.043-0.893-0.173-1.255-0.389
		c-0.362-0.215-0.651-0.539-0.867-0.97c-0.216-0.432-0.307-1.026-0.271-1.785v-9.289h-2.458v-0.854h2.458v-4.141h0.983v4.141h2.897
		V250.105z"/>
	<path d="M91.604,249.252h1.164l4.942,12.135l4.554-12.135h1.112l-5.692,14.722c-0.275,0.655-0.53,1.221-0.763,1.695
		c-0.233,0.474-0.496,0.823-0.789,1.048c-0.346,0.275-0.755,0.443-1.229,0.504s-1.1,0.091-1.876,0.091v-0.854
		c0.707,0,1.259-0.057,1.656-0.168c0.396-0.113,0.768-0.341,1.112-0.687c0.189-0.189,0.389-0.539,0.596-1.048
		s0.465-1.203,0.775-2.082L91.604,249.252z"/>
	<path d="M104.075,255.901c0-0.948,0.133-1.841,0.401-2.678c0.267-0.837,0.659-1.574,1.177-2.213
		c0.518-0.638,1.155-1.143,1.915-1.514c0.759-0.37,1.63-0.556,2.613-0.556c0.982,0,1.854,0.186,2.613,0.556
		c0.759,0.371,1.396,0.876,1.914,1.514c0.518,0.639,0.91,1.376,1.178,2.213c0.267,0.837,0.4,1.729,0.4,2.678s-0.134,1.846-0.4,2.69
		c-0.268,0.846-0.66,1.583-1.178,2.213s-1.155,1.13-1.914,1.5c-0.76,0.371-1.631,0.557-2.613,0.557
		c-0.983,0-1.854-0.186-2.613-0.557c-0.76-0.37-1.397-0.87-1.915-1.5s-0.91-1.367-1.177-2.213
		C104.208,257.747,104.075,256.85,104.075,255.901z M105.059,255.901c0,0.793,0.111,1.557,0.336,2.29
		c0.224,0.733,0.552,1.384,0.983,1.953c0.431,0.569,0.966,1.022,1.604,1.358c0.638,0.336,1.371,0.505,2.199,0.505
		c0.827,0,1.561-0.169,2.199-0.505c0.638-0.336,1.173-0.789,1.604-1.358c0.432-0.569,0.759-1.22,0.983-1.953s0.337-1.497,0.337-2.29
		s-0.112-1.557-0.337-2.29s-0.552-1.384-0.983-1.953c-0.431-0.569-0.966-1.022-1.604-1.358c-0.639-0.337-1.372-0.505-2.199-0.505
		c-0.828,0-1.562,0.168-2.199,0.505c-0.639,0.336-1.174,0.789-1.604,1.358c-0.432,0.569-0.76,1.22-0.983,1.953
		C105.17,254.345,105.059,255.108,105.059,255.901z"/>
	<path d="M129.12,262.551h-0.983v-2.846h-0.052c-0.172,0.5-0.418,0.944-0.737,1.332s-0.689,0.721-1.112,0.996
		c-0.423,0.276-0.884,0.483-1.385,0.621c-0.5,0.138-1.009,0.207-1.526,0.207c-0.776,0-1.436-0.095-1.979-0.285
		c-0.543-0.189-0.987-0.439-1.332-0.75c-0.346-0.311-0.617-0.659-0.815-1.048c-0.198-0.388-0.341-0.78-0.427-1.177
		c-0.086-0.397-0.138-0.78-0.155-1.151s-0.025-0.694-0.025-0.971v-8.228h0.983v8.408c0,0.346,0.025,0.764,0.077,1.255
		c0.052,0.492,0.202,0.967,0.453,1.424c0.25,0.457,0.625,0.85,1.125,1.177c0.5,0.328,1.207,0.492,2.122,0.492
		c0.741,0,1.41-0.139,2.005-0.414c0.595-0.276,1.1-0.66,1.514-1.151c0.414-0.492,0.729-1.078,0.944-1.76s0.323-1.427,0.323-2.238
		v-7.192h0.983V262.551z"/>
	<path d="M133.002,252.201h0.077c0.12-0.431,0.341-0.836,0.66-1.216c0.318-0.38,0.707-0.707,1.164-0.983
		c0.457-0.275,0.966-0.487,1.526-0.634s1.143-0.211,1.746-0.194v0.983c-0.517-0.068-1.108-0.017-1.771,0.155
		c-0.665,0.173-1.299,0.552-1.902,1.139c-0.241,0.259-0.452,0.509-0.634,0.75c-0.181,0.242-0.332,0.509-0.453,0.802
		c-0.12,0.294-0.216,0.621-0.284,0.983c-0.069,0.362-0.112,0.794-0.129,1.294v7.271h-0.983v-13.299h0.983V252.201z"/>
	<path d="M156.417,253.365c-0.052-0.586-0.203-1.104-0.452-1.552c-0.251-0.448-0.574-0.819-0.971-1.113
		c-0.397-0.293-0.858-0.518-1.384-0.673c-0.526-0.154-1.092-0.232-1.695-0.232c-0.828,0-1.562,0.168-2.199,0.505
		c-0.639,0.336-1.173,0.785-1.604,1.345c-0.431,0.562-0.759,1.199-0.982,1.915c-0.225,0.716-0.337,1.453-0.337,2.212
		c0,0.897,0.104,1.726,0.311,2.484s0.526,1.419,0.957,1.979c0.432,0.561,0.966,0.996,1.604,1.307
		c0.638,0.311,1.389,0.466,2.251,0.466c0.621,0,1.194-0.104,1.721-0.311s0.992-0.492,1.397-0.854s0.737-0.797,0.996-1.307
		c0.259-0.508,0.431-1.064,0.518-1.669h0.982c-0.103,0.794-0.319,1.501-0.646,2.122c-0.328,0.621-0.742,1.143-1.242,1.565
		s-1.069,0.746-1.707,0.971c-0.639,0.224-1.312,0.336-2.019,0.336c-1.087,0-2.014-0.194-2.781-0.582
		c-0.768-0.389-1.397-0.91-1.889-1.565c-0.492-0.655-0.854-1.41-1.087-2.264c-0.232-0.854-0.35-1.747-0.35-2.679
		c0-0.931,0.134-1.811,0.401-2.639s0.66-1.553,1.178-2.174c0.517-0.621,1.155-1.112,1.914-1.475s1.63-0.543,2.613-0.543
		c0.725,0,1.401,0.09,2.031,0.271c0.63,0.181,1.19,0.453,1.682,0.814c0.492,0.362,0.893,0.824,1.203,1.385s0.5,1.212,0.569,1.953
		H156.417z"/>
	<path d="M159.212,255.901c0-0.948,0.133-1.841,0.401-2.678c0.267-0.837,0.659-1.574,1.177-2.213
		c0.518-0.638,1.155-1.143,1.915-1.514c0.759-0.37,1.63-0.556,2.613-0.556c0.982,0,1.854,0.186,2.613,0.556
		c0.759,0.371,1.396,0.876,1.914,1.514c0.518,0.639,0.91,1.376,1.178,2.213c0.267,0.837,0.4,1.729,0.4,2.678s-0.134,1.846-0.4,2.69
		c-0.268,0.846-0.66,1.583-1.178,2.213s-1.155,1.13-1.914,1.5c-0.76,0.371-1.631,0.557-2.613,0.557
		c-0.983,0-1.854-0.186-2.613-0.557c-0.76-0.37-1.397-0.87-1.915-1.5s-0.91-1.367-1.177-2.213
		C159.345,257.747,159.212,256.85,159.212,255.901z M160.195,255.901c0,0.793,0.111,1.557,0.336,2.29
		c0.224,0.733,0.552,1.384,0.983,1.953c0.431,0.569,0.966,1.022,1.604,1.358c0.638,0.336,1.371,0.505,2.199,0.505
		c0.827,0,1.561-0.169,2.199-0.505c0.638-0.336,1.173-0.789,1.604-1.358c0.432-0.569,0.759-1.22,0.983-1.953s0.337-1.497,0.337-2.29
		s-0.112-1.557-0.337-2.29s-0.552-1.384-0.983-1.953c-0.431-0.569-0.966-1.022-1.604-1.358c-0.639-0.337-1.372-0.505-2.199-0.505
		c-0.828,0-1.562,0.168-2.199,0.505c-0.639,0.336-1.174,0.789-1.604,1.358c-0.432,0.569-0.76,1.22-0.983,1.953
		C160.307,254.345,160.195,255.108,160.195,255.901z"/>
	<path d="M173.752,249.252h0.983v2.717h0.052c0.104-0.414,0.284-0.807,0.543-1.178s0.573-0.694,0.944-0.97
		c0.371-0.276,0.785-0.492,1.242-0.647s0.936-0.232,1.437-0.232c0.638,0,1.189,0.082,1.655,0.245c0.466,0.164,0.862,0.38,1.19,0.647
		c0.327,0.268,0.586,0.569,0.776,0.905c0.189,0.337,0.319,0.678,0.388,1.022h0.052c0.396-0.932,0.928-1.635,1.592-2.109
		c0.664-0.474,1.539-0.711,2.626-0.711c0.604,0,1.16,0.09,1.669,0.271c0.509,0.181,0.948,0.457,1.319,0.828s0.66,0.841,0.867,1.41
		s0.311,1.241,0.311,2.018v9.082h-0.983v-9.107c0-0.845-0.13-1.51-0.389-1.992c-0.258-0.483-0.564-0.85-0.918-1.1
		s-0.708-0.405-1.061-0.466c-0.354-0.061-0.626-0.091-0.815-0.091c-0.604,0-1.16,0.104-1.669,0.311s-0.949,0.518-1.319,0.932
		c-0.371,0.414-0.66,0.927-0.867,1.539s-0.311,1.315-0.311,2.109v7.865h-0.982v-9.107c0-0.828-0.126-1.488-0.376-1.979
		s-0.543-0.858-0.879-1.1c-0.337-0.241-0.682-0.396-1.035-0.466c-0.354-0.068-0.634-0.104-0.841-0.104
		c-0.466,0-0.949,0.095-1.449,0.284c-0.501,0.19-0.957,0.483-1.371,0.88c-0.414,0.397-0.751,0.906-1.01,1.527
		c-0.259,0.62-0.388,1.354-0.388,2.199v7.865h-0.983V249.252z"/>
	<path d="M195.512,252.305h0.078c0.104-0.327,0.275-0.689,0.518-1.087c0.241-0.396,0.561-0.763,0.957-1.1
		c0.396-0.336,0.875-0.616,1.437-0.841c0.56-0.224,1.203-0.336,1.927-0.336c1.018,0,1.902,0.189,2.652,0.569
		c0.751,0.379,1.371,0.889,1.863,1.526c0.491,0.638,0.857,1.38,1.1,2.225c0.241,0.846,0.362,1.734,0.362,2.665
		c0,1.019-0.121,1.95-0.363,2.795s-0.609,1.574-1.103,2.187s-1.115,1.091-1.867,1.436s-1.639,0.518-2.658,0.518
		c-1.106,0-2.093-0.242-2.957-0.725s-1.495-1.268-1.894-2.354h-0.051l-0.001,7.529h-0.957v-18.06h0.957V252.305z M200.415,262.008
		c0.864,0,1.612-0.164,2.244-0.492c0.631-0.327,1.149-0.768,1.557-1.319c0.406-0.552,0.709-1.194,0.907-1.928
		c0.199-0.732,0.299-1.514,0.299-2.342c0-0.759-0.096-1.505-0.285-2.237c-0.19-0.733-0.484-1.389-0.883-1.967
		c-0.397-0.578-0.912-1.044-1.543-1.397c-0.632-0.354-1.396-0.53-2.296-0.53c-0.882,0-1.634,0.173-2.257,0.518
		s-1.129,0.802-1.518,1.371c-0.39,0.569-0.67,1.221-0.844,1.954c-0.173,0.732-0.259,1.496-0.259,2.289
		c0,0.794,0.077,1.558,0.233,2.29c0.155,0.733,0.419,1.38,0.791,1.94s0.873,1.01,1.505,1.346
		C198.698,261.839,199.481,262.008,200.415,262.008z"/>
	<path d="M217.53,259.912h-0.052c-0.155,0.396-0.379,0.771-0.672,1.125c-0.294,0.354-0.651,0.669-1.074,0.944
		c-0.423,0.276-0.901,0.492-1.436,0.646c-0.535,0.155-1.122,0.233-1.76,0.233c-1.415,0-2.51-0.307-3.286-0.919
		c-0.776-0.611-1.164-1.556-1.164-2.833c0-0.776,0.155-1.41,0.466-1.901c0.311-0.492,0.702-0.88,1.177-1.164
		c0.475-0.285,1-0.487,1.578-0.608c0.578-0.12,1.135-0.207,1.669-0.259l1.527-0.13c0.707-0.051,1.263-0.133,1.668-0.245
		s0.712-0.268,0.919-0.466s0.336-0.453,0.388-0.764s0.078-0.698,0.078-1.164c0-0.362-0.069-0.698-0.207-1.009
		c-0.139-0.311-0.354-0.587-0.646-0.828c-0.294-0.241-0.673-0.431-1.139-0.569c-0.466-0.138-1.035-0.207-1.708-0.207
		c-1.19,0-2.151,0.294-2.885,0.88c-0.733,0.587-1.135,1.475-1.203,2.665h-0.983c0.069-1.466,0.539-2.565,1.41-3.299
		s2.108-1.1,3.713-1.1s2.772,0.314,3.506,0.944s1.1,1.453,1.1,2.471v7.736c0,0.19,0.004,0.38,0.014,0.569
		c0.008,0.189,0.038,0.362,0.09,0.518s0.138,0.28,0.259,0.375s0.293,0.143,0.518,0.143c0.172,0,0.414-0.026,0.725-0.078v0.828
		c-0.259,0.069-0.526,0.104-0.802,0.104c-0.397,0-0.712-0.052-0.944-0.155c-0.233-0.104-0.41-0.241-0.531-0.414
		c-0.12-0.172-0.202-0.375-0.245-0.608c-0.044-0.232-0.065-0.486-0.065-0.763V259.912z M217.53,254.996
		c-0.241,0.293-0.607,0.491-1.1,0.595c-0.491,0.104-1.039,0.181-1.643,0.232l-1.656,0.155c-0.482,0.052-0.966,0.126-1.448,0.221
		c-0.483,0.095-0.919,0.254-1.307,0.479c-0.389,0.224-0.703,0.53-0.944,0.918c-0.242,0.389-0.362,0.893-0.362,1.514
		c0,0.983,0.311,1.712,0.931,2.187c0.621,0.475,1.476,0.712,2.562,0.712c1.121,0,2.01-0.203,2.665-0.608s1.156-0.871,1.501-1.397
		c0.345-0.525,0.564-1.035,0.66-1.526c0.095-0.491,0.142-0.823,0.142-0.996V254.996z"/>
	<path d="M221.645,249.252h0.983v2.846h0.052c0.172-0.5,0.418-0.944,0.737-1.332c0.318-0.389,0.689-0.721,1.112-0.996
		c0.422-0.276,0.884-0.483,1.384-0.621c0.5-0.139,1.01-0.207,1.527-0.207c0.775,0,1.436,0.095,1.979,0.284
		c0.544,0.19,0.987,0.44,1.333,0.751c0.345,0.31,0.616,0.659,0.814,1.048c0.198,0.388,0.341,0.78,0.428,1.177
		c0.086,0.397,0.138,0.78,0.155,1.151c0.017,0.371,0.025,0.694,0.025,0.971v8.228h-0.983v-8.409c0-0.327-0.025-0.741-0.077-1.242
		c-0.052-0.5-0.203-0.979-0.453-1.436s-0.63-0.85-1.139-1.178c-0.509-0.327-1.212-0.491-2.108-0.491
		c-0.759,0-1.432,0.139-2.019,0.414c-0.586,0.276-1.086,0.66-1.5,1.151s-0.729,1.078-0.944,1.76
		c-0.216,0.682-0.323,1.427-0.323,2.237v7.193h-0.983V249.252z"/>
	<path d="M233.469,249.252h1.164l4.942,12.135l4.554-12.135h1.112l-5.692,14.722c-0.275,0.655-0.53,1.221-0.763,1.695
		c-0.233,0.474-0.496,0.823-0.789,1.048c-0.346,0.275-0.755,0.443-1.229,0.504s-1.1,0.091-1.876,0.091v-0.854
		c0.707,0,1.259-0.057,1.656-0.168c0.396-0.113,0.768-0.341,1.112-0.687c0.189-0.189,0.389-0.539,0.596-1.048
		s0.465-1.203,0.775-2.082L233.469,249.252z"/>
	<path d="M264.725,249.252v12.601c0,0.741-0.087,1.462-0.259,2.16s-0.469,1.315-0.891,1.85c-0.422,0.535-1.003,0.962-1.742,1.281
		c-0.74,0.318-1.678,0.479-2.813,0.479c-0.706,0-1.368-0.073-1.987-0.22c-0.62-0.146-1.162-0.38-1.626-0.699
		c-0.465-0.319-0.84-0.741-1.123-1.268c-0.284-0.526-0.443-1.177-0.478-1.953h0.983c0.051,0.586,0.197,1.087,0.439,1.501
		c0.241,0.413,0.557,0.754,0.944,1.021s0.823,0.461,1.307,0.582c0.482,0.121,1,0.182,1.553,0.182c0.914,0,1.677-0.139,2.289-0.414
		c0.612-0.276,1.1-0.634,1.462-1.074c0.362-0.439,0.617-0.94,0.764-1.5c0.146-0.562,0.22-1.126,0.22-1.695v-3.053h-0.075
		c-0.465,0.983-1.097,1.733-1.897,2.251s-1.769,0.776-2.904,0.776c-0.98,0-1.829-0.169-2.543-0.505
		c-0.715-0.336-1.309-0.802-1.781-1.397c-0.474-0.595-0.826-1.289-1.059-2.083c-0.232-0.793-0.349-1.655-0.349-2.587
		c0-0.88,0.125-1.716,0.376-2.51c0.249-0.793,0.616-1.488,1.1-2.083c0.482-0.595,1.082-1.069,1.798-1.423s1.539-0.53,2.471-0.53
		c1.052,0,2.022,0.268,2.911,0.802c0.888,0.535,1.522,1.294,1.901,2.277h0.052v-2.769H264.725z M258.902,249.795
		c-0.811,0-1.514,0.164-2.108,0.491c-0.596,0.328-1.087,0.76-1.475,1.294c-0.389,0.535-0.682,1.144-0.88,1.824
		c-0.198,0.682-0.298,1.376-0.298,2.083c0,0.776,0.1,1.514,0.298,2.212c0.198,0.699,0.5,1.307,0.905,1.824s0.905,0.928,1.501,1.229
		c0.595,0.302,1.28,0.452,2.057,0.452c0.811,0,1.518-0.155,2.122-0.466c0.604-0.311,1.107-0.732,1.514-1.268
		c0.405-0.534,0.707-1.143,0.905-1.824c0.198-0.681,0.298-1.401,0.298-2.16c0-0.741-0.1-1.458-0.298-2.147s-0.5-1.298-0.905-1.824
		c-0.406-0.526-0.91-0.944-1.514-1.255C260.42,249.95,259.713,249.795,258.902,249.795z"/>
	<path d="M268.631,252.201h0.077c0.12-0.431,0.341-0.836,0.66-1.216c0.318-0.38,0.707-0.707,1.164-0.983
		c0.457-0.275,0.966-0.487,1.526-0.634s1.143-0.211,1.746-0.194v0.983c-0.517-0.068-1.108-0.017-1.771,0.155
		c-0.665,0.173-1.299,0.552-1.902,1.139c-0.241,0.259-0.452,0.509-0.634,0.75c-0.181,0.242-0.332,0.509-0.453,0.802
		c-0.12,0.294-0.216,0.621-0.284,0.983c-0.069,0.362-0.112,0.794-0.129,1.294v7.271h-0.983v-13.299h0.983V252.201z"/>
	<path d="M273.909,255.901c0-0.948,0.133-1.841,0.401-2.678c0.267-0.837,0.659-1.574,1.177-2.213
		c0.518-0.638,1.155-1.143,1.915-1.514c0.759-0.37,1.63-0.556,2.613-0.556c0.982,0,1.854,0.186,2.613,0.556
		c0.759,0.371,1.396,0.876,1.914,1.514c0.518,0.639,0.91,1.376,1.178,2.213c0.267,0.837,0.4,1.729,0.4,2.678s-0.134,1.846-0.4,2.69
		c-0.268,0.846-0.66,1.583-1.178,2.213s-1.155,1.13-1.914,1.5c-0.76,0.371-1.631,0.557-2.613,0.557
		c-0.983,0-1.854-0.186-2.613-0.557c-0.76-0.37-1.397-0.87-1.915-1.5s-0.91-1.367-1.177-2.213
		C274.042,257.747,273.909,256.85,273.909,255.901z M274.893,255.901c0,0.793,0.111,1.557,0.336,2.29
		c0.224,0.733,0.552,1.384,0.983,1.953c0.431,0.569,0.966,1.022,1.604,1.358c0.638,0.336,1.371,0.505,2.199,0.505
		c0.827,0,1.561-0.169,2.199-0.505c0.638-0.336,1.173-0.789,1.604-1.358c0.432-0.569,0.759-1.22,0.983-1.953s0.337-1.497,0.337-2.29
		s-0.112-1.557-0.337-2.29s-0.552-1.384-0.983-1.953c-0.431-0.569-0.966-1.022-1.604-1.358c-0.639-0.337-1.372-0.505-2.199-0.505
		c-0.828,0-1.562,0.168-2.199,0.505c-0.639,0.336-1.174,0.789-1.604,1.358c-0.432,0.569-0.76,1.22-0.983,1.953
		C275.004,254.345,274.893,255.108,274.893,255.901z"/>
	<path d="M291.735,261.412h0.052l3.622-12.16h1.32l3.647,12.16h0.052l3.727-12.16h1.086l-4.269,13.299h-1.217l-3.647-12.058h-0.052
		l-3.675,12.058h-1.241l-4.218-13.299h1.061L291.735,261.412z"/>
</g>
<path fill="#FDB913" d="M194.445,55.934l5.863-42.635L182.851,0l-40.67,17.157l-5.215,42.006l-0.016,0.117l14.279,34.503
	l0.045,0.114l35.049,25.784l39.627-16.415l0.25-0.104l2.18-21.894L194.445,55.934z M226.796,81.2l-18.566,2.954l-15.297-15.69
	l1.387-11.511L226.796,81.2z M193.492,56.337l-1.359,11.306l-7.08-7.264l-0.322-10.638L193.492,56.337z M186.175,97.465l-0.27-8.853
	l3.777-0.602l-1.172,9.745L186.175,97.465z M188.404,98.645l-1.752,14.577l-0.449-14.852L188.404,98.645z M145.033,34.212
	l7.148-6.268l4.93,5.057l-8.457,10.941l-2.707-2.048L145.033,34.212z M144.958,41.147l-4.207-3.183l3.469-3.04L144.958,41.147z
	 M189.794,87.088l-3.916,0.623l-0.119-3.974l4.191,2.054L189.794,87.088z M190.8,86.207l1.109,0.545l-1.199,0.19L190.8,86.207z
	 M184.988,87.853l-32.686,5.201l7.414-22.079l25.133,12.316L184.988,87.853z M160.005,70.118l4.408-13.131l20.1,15.205l0.305,10.086
	L160.005,70.118z M164.714,56.093l3.818-11.374l15.633,16.035l0.312,10.29L164.714,56.093z M163.96,55.522l-14.594-11.041
	l8.375-10.833l10.09,10.35L163.96,55.522z M158.294,32.933l1.51-1.952l9.896,7.449l-1.549,4.613L158.294,32.933z M153.839,26.491
	l5.248,3.951l-1.424,1.843l-4.809-4.933L153.839,26.491z M152.23,26.711l-5.24-5.375l6.119,4.605L152.23,26.711z M160.349,30.274
	l11.1-14.359l5.951-0.413L170,37.538L160.349,30.274z M172.183,14.965l9.543-12.344l-4.018,11.96L172.183,14.965z M170.988,15.048
	l-4.451,0.309L179.605,3.9L170.988,15.048z M170.253,15.998l-10.619,13.737l-5.109-3.846l10.898-9.556L170.253,15.998z
	 M153.794,25.341l-9.975-7.508l20.131-1.397L153.794,25.341z M151.556,27.303l-6.652,5.831l-1.713-14.41L151.556,27.303z
	 M148.105,44.65l-1.588,2.054l-0.424-3.576L148.105,44.65z M148.82,45.19l14.84,11.228l-4.467,13.303l-10.555-5.173l-1.969-16.575
	L148.82,45.19z M158.906,70.577l-7.053,21.005l-3.088-25.975L158.906,70.577z M185.015,88.754l0.26,8.599l-30.441-3.795
	L185.015,88.754z M190.599,87.865l2.705-0.431l29.881,14.645l-33.789-4.213L190.599,87.865z M194.841,87.19l7.846-1.249
	l19.115,14.462L194.841,87.19z M193.447,86.507l-2.533-1.242l0.906-7.543l9.879,7.473L193.447,86.507z M190.064,84.849l-4.336-2.124
	l-0.297-9.838l5.564,4.211L190.064,84.849z M185.396,71.738l-0.305-10.035l6.904,7.082l-0.877,7.283L185.396,71.738z
	 M184.126,59.429l-15.271-15.665l1.6-4.767l13.357,10.054L184.126,59.429z M170.753,38.105l7.613-22.67l4.416-0.307l0.994,32.778
	L170.753,38.105z M178.677,14.515l3.75-11.168l0.328,10.885L178.677,14.515z M183.267,1.44l15.344,11.689l-14.959,1.039
	L183.267,1.44z M165.064,15.459l-19.82,1.376l35.174-14.838L165.064,15.459z M144.091,33.847l-3.457,3.032l1.951-15.711
	L144.091,33.847z M140.392,38.815l4.713,3.565l0.635,5.331l-7.688,9.943L140.392,38.815z M145.89,48.979l1.793,15.101l-9.113-4.467
	l-0.279,0.568l-0.369-0.894L145.89,48.979z M147.81,65.14l3.008,25.312l-12.375-29.902L147.81,65.14z M185.302,98.258l0.607,20.008
	l-32.619-23.997L185.302,98.258z M189.291,98.755l34.754,4.331l-37.127,15.38L189.291,98.755z M203.914,85.746l3.996-0.636
	l13.596,13.944L203.914,85.746z M202.925,84.999l-10.98-8.307l0.852-7.086l14.35,14.721L202.925,84.999z M193.628,55.321
	l-8.934-6.724l-1.016-33.531l15.631-1.085L193.628,55.321z M225.435,101.803l-16.441-16.865l18.414-2.931L225.435,101.803z"/>
<g>
</g>
<g>
</g>
<g>
</g>
<g>
</g>
<g>
</g>
<g>
</g>
</svg>
